# AST/ASF file generated using VICON BodyLanguage
# -----------------------------------------------
:version 1.10
:name VICON
:units
  mass 1.0
  length 0.45
  angle deg
:documentation
   .ast/.asf automatically generated from VICON data using
   VICON BodyBuilder and BodyLanguage model FoxedUp or BRILLIANT.MOD
:root
   order TX TY TZ RX RY RZ
   axis XYZ
   position 0 0 0  
   orientation 0 0 0 
:bonedata
  begin
     id 1 
     name lhipjoint
     direction 0.630082 -0.636569 0.44472 
     length 2.82754 
     axis 0 0 0  XYZ
  end
  begin
     id 2 
     name lfemur
     direction 0.34202 -0.939693 0  
     length 7.26371  
     axis 0 0 20  XYZ
    dof rx ry rz
    limits (-160.0 20.0)
           (-70.0 70.0)
           (-60.0 70.0)
  end
  begin
     id 3 
     name ltibia
     direction 0.34202 -0.939693 0   
     length 7.88616   
     axis 0 0 20   XYZ
    dof rx
    limits (-10.0 170.0)
  end
  begin
     id 4 
     name lfoot
     direction 0.0603448 -0.165796 0.984312   
     length 1.77861   
     axis -90 7.62852e-016 20   XYZ
    dof rx rz
    limits (-45.0 90.0)
           (-70.0 20.0)
  end
  begin
     id 5 
     name ltoes
     direction 1.53577e-011 -4.21876e-011 1   
     length 0.902235   
     axis -90 7.62852e-016 20   XYZ
    dof rx
    limits (-90.0 20.0)
  end
  begin
     id 6 
     name rhipjoint
     direction -0.656778 -0.61817 0.431866   
     length 2.9117  
     axis 0 0 0  XYZ 
  end
  begin
     id 7 
     name rfemur
     direction -0.34202 -0.939693 0   
     length 6.81603   
     axis 0 0 -20   XYZ
    dof rx ry rz
    limits (-160.0 20.0)
           (-70.0 70.0)
           (-70.0 60.0)
  end
  begin
     id 8 
     name rtibia
     direction -0.34202 -0.939693 0   
     length 8.05997   
     axis 0 0 -20   XYZ
    dof rx
    limits (-10.0 170.0)
 end
 begin
     id 9 
     name rfoot
     direction -0.0862404 -0.236944 0.967688   
     length 1.84899  
     axis -90 -7.62852e-016 -20   XYZ
    dof rx rz
    limits (-45.0 90.0)
           (-20.0 70.0)
  end
  begin
     id 10 
     name rtoes
     direction -1.53561e-011 -4.21798e-011 1   
     length 0.931579   
     axis -90 -7.62852e-016 -20   XYZ
    dof rx
    limits (-90.0 20.0)
  end
  begin
     id 11 
     name lowerback
     direction -0.0110203 0.991769 -0.127564   
     length 2.05686   
     axis 0 0 0   XYZ
    dof rx ry rz
    limits (-20.0 45.0)
           (-30.0 30.0)
           (-30.0 30.0)
  end
  begin
     id 12 
     name upperback
     direction 0.0109719 0.99993 -0.00432479   
     length 2.06234   
     axis 0 0 0   XYZ
    dof rx ry rz
    limits (-20.0 45.0)
           (-30.0 30.0)
           (-30.0 30.0)
  end
  begin
     id 13 
     name thorax
     direction 0.0173308 0.998351 0.0547306   
     length 2.09856   
     axis 0 0 0   XYZ
    dof rx ry rz
    limits (-20.0 45.0)
           (-30.0 30.0)
           (-30.0 30.0)
  end
  begin
     id 14 
     name lowerneck
     direction -0.0311736 0.989033 0.144366   
     length 1.98151   
     axis 0 0 0   XYZ
    dof rx ry rz
    limits (-20.0 45.0)
           (-30.0 30.0)
           (-30.0 30.0)
  end
  begin
     id 15 
     name upperneck
     direction 0.0421057 0.975772 -0.214698   
     length 2.01457   
     axis 0 0 0   XYZ
    dof rx ry rz
    limits (-20.0 45.0)
           (-30.0 30.0)
           (-30.0 30.0)
  end
  begin
     id 16
     name head
     direction 0.0136911 0.995958 -0.0887718  
     length 2.03562  
     axis 0 0 0   XYZ
    dof rx ry rz
    limits (-20.0 45.0)
           (-30.0 30.0)
           (-30.0 30.0)
  end
  begin
     id 17 
     name lclavicle
     direction 0.915335 0.396201 0.0720134  
     length 4.16217  
     axis 0 0 0   XYZ
    dof ry rz
    limits (-20.0 10.0)
           (0.0 20.0)
  end
  begin
     id 18 
     name lhumerus
     direction 1 -4.48965e-011 6.383e-018   
     length 4.93042   
     axis -180 -30 -90   XYZ
    dof rx ry rz
    limits (-60.0 90.0)
           (-90.0 90.0)
           (-90.0 90.0)
  end
  begin
     id 19
     name lradius
     direction 1 -4.48972e-011 8.8689e-027   
     length 3.68177   
     axis -180 -30 -90   XYZ
    dof rx
    limits (-10.0 170.0)
  end
  begin
     id 20
     name lwrist
     direction 1 -4.48953e-011 1.17971e-026   
     length 1.84089   
     axis -7.69454e-015 90 90   XYZ
    dof ry
    limits (-180.0 0.0)
 end
  begin
     id 21 
     name lhand
     direction 1 -4.49027e-011 2.35802e-026   
     length 0.721479   
     axis -1.50533e-014 90 90   XYZ
    dof rx rz
    limits (-90.0 90.0)
           (-45.0 45.0)
  end
  begin
     id 22 
     name lfingers
     direction 1 -4.48915e-011 4.72027e-026   
     length 0.581675   
     axis -3.01059e-014 90 90   XYZ
    dof rx
    limits (0.0 90.0)
  end
  begin
     id 23
     name lthumb
     direction 0.707107 -6.34948e-011 0.707107   
     length 0.835172   
     axis -90 45 -5.12164e-014   XYZ
    dof rx rz
    limits (-45.0 45.0)
           (-45.0 45.0)
  end
  begin
     id 24 
     name rclavicle
     direction -0.882781 0.469197 0.0234974   
     length 3.95647  
     axis 0 0 0   XYZ 
    dof ry rz
    limits (-10.0 20.0)
           (-20.0 0.0)
  end
  begin
     id 25 
     name rhumerus
     direction -1 -4.48965e-011 -1.54906e-018  
     length 5.07905   
     axis -180 30 90   XYZ
    dof rx ry rz
    limits (-90.0 60.0)
           (-90.0 90.0)
           (-90.0 90.0)
  end
  begin
     id 26 
     name rradius
     direction -1 -4.48972e-011 5.47489e-027   
     length 3.54394   
     axis -180 30 90   XYZ
    dof rx
    limits (-10.0 170.0)
  end
  begin
     id 27 
     name rwrist
     direction -1 -4.48955e-011 1.17969e-026   
     length 1.77197   
     axis -7.69454e-015 -90 -90   XYZ
    dof ry
    limits (-180.0 0.0)
  end
  begin
     id 28
     name rhand
     direction -1 -4.48982e-011 2.35888e-026   
     length 0.681156   
     axis -1.50533e-014 -90 -90   XYZ
    dof rx rz
    limits (-90.0 90.0)
           (-45.0 45.0)
  end
  begin
     id 29
     name rfingers
     direction -1 -4.48955e-011 4.71877e-026   
     length 0.549165   
     axis -3.01059e-014 -90 -90   XYZ
    dof rx
    limits (0.0 90.0)
  end
  begin
     id 30
     name rthumb
     direction -0.707107 -6.3491e-011 0.707107   
     length 0.788495   
     axis -90 -45 5.12164e-014   XYZ
    dof rx rz
    limits (-45.0 45.0)
           (-45.0 45.0)
  end
:hierarchy
  begin
    root lhipjoint rhipjoint lowerback
    lhipjoint lfemur
    lfemur ltibia
    ltibia lfoot
    lfoot ltoes
    rhipjoint rfemur
    rfemur rtibia
    rtibia rfoot
    rfoot rtoes
    lowerback upperback
    upperback thorax
    thorax lowerneck lclavicle rclavicle
    lowerneck upperneck
    upperneck head
    lclavicle lhumerus
    lhumerus lradius
    lradius lwrist
    lwrist lhand lthumb
    lhand lfingers
    rclavicle rhumerus
    rhumerus rradius
    rradius rwrist
    rwrist rhand rthumb
    rhand rfingers
  end

#!OML:ASF H:\Bending\Project 1\Capture day 1\Session 1\Subject.ASF
:FULLY-SPECIFIED
:DEGREES
265
root -9.74773 18.1367 -16.5204 -158.203 87.2243 -167.569
lowerback 6.26964 -0.548133 -0.337267
upperback -2.30971 -0.661929 1.58102
thorax -5.90207 -0.277224 1.9108
lowerneck -25.1409 -4.18212 -6.66286
upperneck 28.0795 -4.30109 3.84388
head 14.0343 -1.93355 1.86405
rclavicle 4.42296e-015 1.43125e-014
rhumerus 18.0075 12.5088 -83.264
rradius 52.8491
rwrist -11.6129
rhand -21.399 -35.8204
rfingers 7.12502
rthumb 4.98913 -65.7417
lclavicle 4.42296e-015 1.43125e-014
lhumerus 27.4466 -26.2717 74.1531
lradius 49.0408
lwrist 45.6611
lhand -30.7968 22.783
lfingers 7.12502
lthumb -4.08696 52.7235
rfemur 0.027475 -3.06315 14.1372
rtibia 0
rfoot -8.05366 -14.5455
rtoes -1.78666
lfemur -14.2076 -12.7694 -11.4705
ltibia 22.4636
lfoot -20.1139 10.3909
ltoes -16.3214
266
root -9.75563 18.1426 -16.5179 -158.149 87.193 -167.676
lowerback 6.3841 -0.592361 -0.376271
upperback -2.22364 -0.725114 1.58924
thorax -5.87417 -0.307742 1.94912
lowerneck -25.3287 -4.19524 -6.62641
upperneck 28.0986 -4.31836 3.82257
head 14.081 -1.93933 1.84415
rclavicle 5.81445e-015 2.50469e-014
rhumerus 19.2276 12.0233 -83.4873
rradius 51.3224
rwrist -10.9118
rhand -21.1584 -35.9117
rfingers 7.12502
rthumb 5.22143 -65.8274
lclavicle 5.81445e-015 2.50469e-014
lhumerus 28.7848 -25.8461 73.9087
lradius 47.3011
lwrist 46.1949
lhand -30.2614 22.4739
lfingers 7.12502
lthumb -3.56989 52.4237
rfemur -0.174361 -3.10691 14.1738
rtibia -4.77083e-015
rfoot -7.98692 -14.5761
rtoes -2.19363
lfemur -14.3963 -12.9262 -11.4035
ltibia 22.4028
lfoot -20.0561 10.5955
ltoes -16.7097
267
root -9.76244 18.1486 -16.5145 -158.114 87.13 -167.815
lowerback 6.49084 -0.667912 -0.442855
upperback -2.14542 -0.831807 1.60893
thorax -5.84787 -0.358425 2.01997
lowerneck -25.5032 -4.18343 -6.55466
upperneck 28.1012 -4.32061 3.81597
head 14.1159 -1.9328 1.82717
rclavicle 1.83876e-015 -1.66979e-014
rhumerus 20.52 11.5143 -83.855
rradius 49.6404
rwrist -10.0778
rhand -20.8115 -35.9539
rfingers 7.12502
rthumb 5.55639 -65.8611
lclavicle 1.83876e-015 -1.66979e-014
lhumerus 30.1064 -25.3529 73.6393
lradius 45.5193
lwrist 46.839
lhand -29.6245 22.1927
lfingers 7.12502
lthumb -2.95486 52.152
rfemur -0.380793 -3.18186 14.2199
rtibia 6.36111e-015
rfoot -7.92611 -14.5995
rtoes -2.56842
lfemur -14.5999 -13.1358 -11.3189
ltibia 22.3406
lfoot -20.006 10.8312
ltoes -17.0949
268
root -9.76815 18.1548 -16.5105 -157.875 87.0429 -167.756
lowerback 6.59123 -0.765697 -0.51712
upperback -2.07712 -0.968465 1.63406
thorax -5.82666 -0.423427 2.10445
lowerneck -25.6427 -4.15887 -6.44886
upperneck 28.0814 -4.33177 3.83997
head 14.1342 -1.92209 1.81525
rclavicle 1.18774e-014 -3.1408e-014
rhumerus 21.8915 10.9717 -84.3657
rradius 47.765
rwrist -9.15855
rhand -20.546 -35.9641
rfingers 7.12502
rthumb 5.8127 -65.8643
lclavicle 1.18774e-014 -3.1408e-014
lhumerus 31.3973 -24.779 73.3978
lradius 43.6875
lwrist 47.4342
lhand -28.8208 21.9456
lfingers 7.12502
lthumb -2.17866 51.9142
rfemur -0.589699 -3.2765 14.281
rtibia -4.77083e-015
rfoot -7.87864 -14.6066
rtoes -2.74393
lfemur -14.82 -13.3741 -11.209
ltibia 22.2897
lfoot -19.9837 11.0616
ltoes -17.2761
269
root -9.77311 18.1613 -16.5063 -157.327 86.9362 -167.391
lowerback 6.66517 -0.875209 -0.582645
upperback -2.00567 -1.11986 1.66309
thorax -5.78602 -0.496182 2.1893
lowerneck -25.7469 -4.14068 -6.32314
upperneck 28.0406 -4.37609 3.90221
head 14.1387 -1.91802 1.80905
rclavicle -5.96354e-015 7.95139e-016
rhumerus 23.3599 10.3879 -84.9812
rradius 45.677
rwrist -8.21456
rhand -20.2605 -35.9346
rfingers 7.12502
rthumb 6.08836 -65.8271
lclavicle -5.96354e-015 7.95139e-016
lhumerus 32.6791 -24.1309 73.2301
lradius 41.7787
lwrist 47.8355
lhand -27.8629 21.7068
lfingers 7.12502
lthumb -1.25355 51.6829
rfemur -0.796268 -3.38381 14.36
rtibia -7.95139e-015
rfoot -7.85166 -14.5906
rtoes -2.59417
lfemur -15.0568 -13.6178 -11.0696
ltibia 22.259
lfoot -20.0027 11.2459
ltoes -17.0898
270
root -9.77769 18.168 -16.5021 -156.547 86.8136 -166.793
lowerback 6.6999 -0.987685 -0.620094
upperback -1.92113 -1.27316 1.6872
thorax -5.70931 -0.571501 2.25226
lowerneck -25.8299 -4.14649 -6.19627
upperneck 27.9962 -4.47266 4.01033
head 14.142 -1.92946 1.81114
rclavicle -1.27222e-014 8.34896e-015
rhumerus 24.9226 9.75036 -85.6673
rradius 43.3921
rwrist -7.28322
rhand -19.9441 -35.8854
rfingers 7.12502
rthumb 6.39381 -65.7689
lclavicle -1.27222e-014 8.34896e-015
lhumerus 33.9781 -23.4441 73.1522
lradius 39.7684
lwrist 47.9703
lhand -26.8472 21.4353
lfingers 7.12502
lthumb -0.272508 51.4148
rfemur -0.995287 -3.50002 14.4542
rtibia 4.77083e-015
rfoot -7.84114 -14.5547
rtoes -2.13227
lfemur -15.3072 -13.8485 -10.905
ltibia 22.2496
lfoot -20.0594 11.3602
ltoes -16.5195
271
root -9.78211 18.1747 -16.4978 -155.741 86.682 -166.163
lowerback 6.71572 -1.09538 -0.631986
upperback -1.83255 -1.41824 1.70286
thorax -5.61844 -0.644071 2.29033
lowerneck -25.9096 -4.18522 -6.09068
upperneck 27.9828 -4.62358 4.16411
head 14.1638 -1.95926 1.82508
rclavicle -1.43125e-014 1.19271e-014
rhumerus 26.5356 9.04989 -86.3989
rradius 40.9647
rwrist -6.35952
rhand -19.5904 -35.8334
rfingers 7.12502
rthumb 6.73519 -65.7063
lclavicle -1.43125e-014 1.19271e-014
lhumerus 35.2867 -22.7642 73.1772
lradius 37.6573
lwrist 47.8492
lhand -25.9218 21.1056
lfingers 7.12502
lthumb 0.621321 51.0844
rfemur -1.18364 -3.62116 14.556
rtibia 6.36111e-015
rfoot -7.82423 -14.5165
rtoes -1.55967
lfemur -15.5622 -14.0546 -10.7299
ltibia 22.2556
lfoot -20.1318 11.4104
ltoes -15.7305
272
root -9.78621 18.181 -16.4933 -155.126 86.5534 -165.712
lowerback 6.71813 -1.19283 -0.633161
upperback -1.74035 -1.54941 1.70643
thorax -5.51724 -0.710554 2.30753
lowerneck -26.0068 -4.25281 -6.02127
upperneck 28.0191 -4.81592 4.36397
head 14.2165 -2.00289 1.85625
rclavicle -6.5102e-015 -1.27222e-014
rhumerus 28.1569 8.27393 -87.1745
rradius 38.4736
rwrist -5.3923
rhand -19.1967 -35.7787
rfingers 7.12502
rthumb 7.11526 -65.6391
lclavicle -6.5102e-015 -1.27222e-014
lhumerus 36.5968 -22.1219 73.2943
lradius 35.4842
lwrist 47.5448
lhand -25.2257 20.7341
lfingers 7.12502
lthumb 1.29354 50.7099
rfemur -1.36158 -3.73994 14.6562
rtibia -9.54166e-015
rfoot -7.7624 -14.5042
rtoes -1.22554
lfemur -15.8084 -14.2301 -10.565
ltibia 22.2676
lfoot -20.1864 11.4311
ltoes -15.0237
273
root -9.78947 18.1867 -16.4881 -154.821 86.4417 -165.559
lowerback 6.7241 -1.27562 -0.648231
upperback -1.65253 -1.66275 1.69916
thorax -5.4234 -0.767914 2.31924
lowerneck -26.1307 -4.33382 -5.99152
upperneck 28.1109 -5.02363 4.60339
head 14.3033 -2.05014 1.9079
rclavicle -3.97569e-016 -1.33186e-014
rhumerus 29.7284 7.41473 -88.0073
rradius 36.0088
rwrist -4.30835
rhand -18.7596 -35.6976
rfingers 7.12502
rthumb 7.53716 -65.5434
lclavicle -3.97569e-016 -1.33186e-014
lhumerus 37.8731 -21.5245 73.5023
lradius 33.321
lwrist 47.1327
lhand -24.8283 20.3766
lfingers 7.12502
lthumb 1.6774 50.3498
rfemur -1.53178 -3.84622 14.7476
rtibia -6.36111e-015
rfoot -7.61769 -14.5444
rtoes -1.47912
lfemur -16.0317 -14.375 -10.4291
ltibia 22.2773
lfoot -20.1948 11.4721
ltoes -14.7068
274
root -9.79124 18.1916 -16.4821 -154.809 86.3568 -165.681
lowerback 6.74862 -1.34071 -0.698128
upperback -1.57713 -1.75563 1.68712
thorax -5.35315 -0.813822 2.34405
lowerneck -26.2753 -4.40811 -5.99305
upperneck 28.2436 -5.21637 4.86691
head 14.4145 -2.08947 1.9785
rclavicle -2.52457e-014 -1.19271e-015
rhumerus 31.1938 6.47688 -88.9065
rradius 33.6561
rwrist -3.05456
rhand -18.2764 -35.5531
rfingers 7.12502
rthumb 8.00353 -65.3815
lclavicle -2.52457e-014 -1.19271e-015
lhumerus 39.071 -20.9534 73.815
lradius 31.2506
lwrist 46.6453
lhand -24.6951 20.103
lfingers 7.12502
lthumb 1.80603 50.0751
rfemur -1.69597 -3.93091 14.8278
rtibia -6.36111e-015
rfoot -7.37538 -14.6451
rtoes -2.47781
lfemur -16.2219 -14.4944 -10.3313
ltibia 22.2808
lfoot -20.147 11.5746
ltoes -14.948
